<svg width="165" height="41" viewBox="0 0 165 41" fill="none" xmlns="http://www.w3.org/2000/svg">
<path d="M15.6667 37.3432H11.7778C7.48223 37.3432 4 33.8609 4 29.5654V17.3302C4 14.6105 5.42063 12.0883 7.74654 10.6786L17.4688 4.7864C19.9466 3.28474 23.0534 3.28474 25.5312 4.7864L35.2534 10.6786C37.5794 12.0883 39 14.6105 39 17.3302V29.5654C39 33.8609 35.5177 37.3432 31.2222 37.3432H27.3333M15.6667 37.3432V29.5654C15.6667 26.3437 18.2782 23.7321 21.5 23.7321C24.7217 23.7321 27.3333 26.3437 27.3333 29.5654V37.3432M15.6667 37.3432H27.3333" stroke="#5D50C6" stroke-width="6.11" stroke-linecap="round" stroke-linejoin="round"/>
<path d="M56.517 12.0455H61.0682L65.875 23.7727H66.0795L70.8864 12.0455H75.4375V29.5H71.858V18.1392H71.7131L67.196 29.4148H64.7585L60.2415 18.0966H60.0966V29.5H56.517V12.0455ZM84.3246 29.7557C83.0007 29.7557 81.8558 29.4744 80.8899 28.9119C79.9297 28.3437 79.1882 27.554 78.6655 26.5426C78.1428 25.5256 77.8814 24.3466 77.8814 23.0057C77.8814 21.6534 78.1428 20.4716 78.6655 19.4602C79.1882 18.4432 79.9297 17.6534 80.8899 17.0909C81.8558 16.5227 83.0007 16.2386 84.3246 16.2386C85.6484 16.2386 86.7905 16.5227 87.7507 17.0909C88.7166 17.6534 89.4609 18.4432 89.9837 19.4602C90.5064 20.4716 90.7678 21.6534 90.7678 23.0057C90.7678 24.3466 90.5064 25.5256 89.9837 26.5426C89.4609 27.554 88.7166 28.3437 87.7507 28.9119C86.7905 29.4744 85.6484 29.7557 84.3246 29.7557ZM84.3416 26.9432C84.9439 26.9432 85.4467 26.7727 85.8501 26.4318C86.2536 26.0852 86.5575 25.6136 86.7621 25.017C86.9723 24.4205 87.0774 23.7415 87.0774 22.9801C87.0774 22.2188 86.9723 21.5398 86.7621 20.9432C86.5575 20.3466 86.2536 19.875 85.8501 19.5284C85.4467 19.1818 84.9439 19.0085 84.3416 19.0085C83.7337 19.0085 83.2223 19.1818 82.8075 19.5284C82.3984 19.875 82.0888 20.3466 81.8786 20.9432C81.674 21.5398 81.5717 22.2188 81.5717 22.9801C81.5717 23.7415 81.674 24.4205 81.8786 25.017C82.0888 25.6136 82.3984 26.0852 82.8075 26.4318C83.2223 26.7727 83.7337 26.9432 84.3416 26.9432ZM104.021 20.142L100.697 20.3466C100.64 20.0625 100.518 19.8068 100.33 19.5795C100.143 19.3466 99.8956 19.1619 99.5888 19.0256C99.2876 18.8835 98.9268 18.8125 98.5064 18.8125C97.9439 18.8125 97.4695 18.9318 97.0831 19.1705C96.6967 19.4034 96.5036 19.7159 96.5036 20.108C96.5036 20.4205 96.6286 20.6847 96.8786 20.9006C97.1286 21.1165 97.5575 21.2898 98.1655 21.4205L100.535 21.8977C101.808 22.1591 102.756 22.5795 103.381 23.1591C104.006 23.7386 104.319 24.5 104.319 25.4432C104.319 26.3011 104.066 27.054 103.56 27.7017C103.06 28.3494 102.373 28.8551 101.498 29.2188C100.629 29.5767 99.6257 29.7557 98.4893 29.7557C96.7564 29.7557 95.3757 29.3949 94.3473 28.6733C93.3246 27.946 92.7251 26.9574 92.549 25.7074L96.12 25.5199C96.228 26.0483 96.4893 26.4517 96.9041 26.7301C97.3189 27.0028 97.8501 27.1392 98.4979 27.1392C99.1342 27.1392 99.6456 27.017 100.032 26.7727C100.424 26.5227 100.623 26.2017 100.629 25.8097C100.623 25.4801 100.484 25.2102 100.211 25C99.9382 24.7841 99.5178 24.6193 98.9496 24.5057L96.6825 24.054C95.4041 23.7983 94.4524 23.3551 93.8274 22.7244C93.2081 22.0937 92.8984 21.2898 92.8984 20.3125C92.8984 19.4716 93.1257 18.7472 93.5803 18.1392C94.0405 17.5312 94.6854 17.0625 95.5149 16.733C96.3501 16.4034 97.3274 16.2386 98.4467 16.2386C100.1 16.2386 101.401 16.5881 102.35 17.2869C103.305 17.9858 103.862 18.9375 104.021 20.142ZM115.256 34.4091V27.4034H115.145C114.974 27.767 114.733 28.1278 114.42 28.4858C114.114 28.8381 113.713 29.1307 113.219 29.3636C112.73 29.5966 112.134 29.7131 111.429 29.7131C110.435 29.7131 109.534 29.4574 108.727 28.946C107.926 28.429 107.29 27.6705 106.818 26.6705C106.352 25.6648 106.119 24.4318 106.119 22.9716C106.119 21.4716 106.361 20.2244 106.844 19.2301C107.327 18.2301 107.969 17.483 108.77 16.9886C109.577 16.4886 110.46 16.2386 111.42 16.2386C112.153 16.2386 112.764 16.3636 113.253 16.6136C113.747 16.858 114.145 17.1648 114.446 17.5341C114.753 17.8977 114.986 18.2557 115.145 18.608H115.298V16.4091H118.878V34.4091H115.256ZM112.58 26.8239C113.165 26.8239 113.659 26.6648 114.062 26.3466C114.472 26.0227 114.784 25.571 115 24.9915C115.222 24.4119 115.332 23.733 115.332 22.9545C115.332 22.1761 115.224 21.5 115.009 20.9261C114.793 20.3523 114.48 19.9091 114.071 19.5966C113.662 19.2841 113.165 19.1278 112.58 19.1278C111.983 19.1278 111.48 19.2898 111.071 19.6136C110.662 19.9375 110.352 20.3864 110.142 20.9602C109.932 21.5341 109.827 22.1989 109.827 22.9545C109.827 23.7159 109.932 24.3892 110.142 24.9744C110.358 25.554 110.668 26.0085 111.071 26.3381C111.48 26.6619 111.983 26.8239 112.58 26.8239ZM130.443 34.4091V27.4034H130.332C130.162 27.767 129.92 28.1278 129.608 28.4858C129.301 28.8381 128.901 29.1307 128.406 29.3636C127.918 29.5966 127.321 29.7131 126.616 29.7131C125.622 29.7131 124.722 29.4574 123.915 28.946C123.114 28.429 122.477 27.6705 122.006 26.6705C121.54 25.6648 121.307 24.4318 121.307 22.9716C121.307 21.4716 121.548 20.2244 122.031 19.2301C122.514 18.2301 123.156 17.483 123.957 16.9886C124.764 16.4886 125.648 16.2386 126.608 16.2386C127.341 16.2386 127.952 16.3636 128.44 16.6136C128.935 16.858 129.332 17.1648 129.634 17.5341C129.94 17.8977 130.173 18.2557 130.332 18.608H130.486V16.4091H134.065V34.4091H130.443ZM127.767 26.8239C128.352 26.8239 128.847 26.6648 129.25 26.3466C129.659 26.0227 129.972 25.571 130.188 24.9915C130.409 24.4119 130.52 23.733 130.52 22.9545C130.52 22.1761 130.412 21.5 130.196 20.9261C129.98 20.3523 129.668 19.9091 129.259 19.5966C128.849 19.2841 128.352 19.1278 127.767 19.1278C127.17 19.1278 126.668 19.2898 126.259 19.6136C125.849 19.9375 125.54 20.3864 125.33 20.9602C125.119 21.5341 125.014 22.1989 125.014 22.9545C125.014 23.7159 125.119 24.3892 125.33 24.9744C125.545 25.554 125.855 26.0085 126.259 26.3381C126.668 26.6619 127.17 26.8239 127.767 26.8239ZM145.375 23.9261V16.4091H149.006V29.5H145.52V27.1222H145.384C145.088 27.8892 144.597 28.5057 143.909 28.9716C143.227 29.4375 142.395 29.6705 141.412 29.6705C140.537 29.6705 139.767 29.4716 139.102 29.0739C138.438 28.6761 137.918 28.1108 137.543 27.3778C137.173 26.6449 136.986 25.767 136.98 24.7443V16.4091H140.611V24.0966C140.616 24.8693 140.824 25.4801 141.233 25.929C141.642 26.3778 142.19 26.6023 142.878 26.6023C143.315 26.6023 143.724 26.5028 144.105 26.304C144.486 26.0994 144.793 25.7983 145.026 25.4006C145.264 25.0028 145.381 24.5114 145.375 23.9261ZM157.876 29.7557C156.529 29.7557 155.37 29.483 154.398 28.9375C153.433 28.3864 152.688 27.608 152.165 26.6023C151.643 25.5909 151.381 24.3949 151.381 23.0142C151.381 21.6676 151.643 20.4858 152.165 19.4688C152.688 18.4517 153.424 17.6591 154.373 17.0909C155.327 16.5227 156.447 16.2386 157.731 16.2386C158.594 16.2386 159.398 16.3778 160.143 16.6562C160.893 16.929 161.546 17.3409 162.103 17.892C162.665 18.4432 163.103 19.1364 163.415 19.9716C163.728 20.8011 163.884 21.7727 163.884 22.8864V23.8835H152.83V21.6335H160.467C160.467 21.1108 160.353 20.6477 160.126 20.2443C159.898 19.8409 159.583 19.5256 159.18 19.2983C158.782 19.0653 158.319 18.9489 157.79 18.9489C157.239 18.9489 156.751 19.0767 156.325 19.3324C155.904 19.5824 155.575 19.9205 155.336 20.3466C155.097 20.767 154.975 21.2358 154.969 21.7528V23.892C154.969 24.5398 155.089 25.0994 155.327 25.571C155.572 26.0426 155.915 26.4062 156.359 26.6619C156.802 26.9176 157.327 27.0455 157.935 27.0455C158.339 27.0455 158.708 26.9886 159.043 26.875C159.379 26.7614 159.665 26.5909 159.904 26.3636C160.143 26.1364 160.325 25.858 160.45 25.5284L163.808 25.75C163.637 26.5568 163.288 27.2614 162.759 27.8636C162.237 28.4602 161.56 28.9261 160.731 29.2614C159.907 29.5909 158.955 29.7557 157.876 29.7557Z" fill="black"/>
</svg>
